HIERARCHY
ROOT hip
{
	OFFSET 0.000000 0.000000 0.000000 
	CHANNELS 6 Xposition Yposition Zposition Xrotation Zrotation Yrotation
	JOINT abdomen
	{
		OFFSET 0.000000 3.402643 0.000000 
		CHANNELS 3 Xrotation Zrotation Yrotation
		JOINT chest
		{
			OFFSET 0.000000 8.438565 -0.680529 
			CHANNELS 3 Xrotation Zrotation Yrotation
			JOINT neck
			{
				OFFSET 0.000000 10.207942 -0.272212 
				CHANNELS 3 Xrotation Zrotation Yrotation
				JOINT head
				{
					OFFSET 0.000000 3.130431 0.000000 
					CHANNELS 3 Xrotation Zrotation Yrotation
					End Site
					{
						OFFSET 0.000000 3.130435 0.000000 
					}
				}
			}
			JOINT lCollar
			{
				OFFSET 3.470700 6.669187 -0.816635 
				CHANNELS 3 Yrotation Zrotation Xrotation
				JOINT lShldr
				{
					OFFSET 3.198488 0.000000 0.000000 
					CHANNELS 3 Zrotation Yrotation Xrotation
					JOINT lForeArm
					{
						OFFSET 10.139888 0.000000 0.000000 
						CHANNELS 3 Yrotation Zrotation Xrotation
						JOINT lHand
						{
							OFFSET 8.370511 0.000000 0.000000 
							CHANNELS 3 Zrotation Yrotation Xrotation
							End Site
							{
								OFFSET 4.083176 0.000000 0.000000 
							}
						}
					}
				}
			}
			JOINT rCollar
			{
				OFFSET -3.470700 6.669187 -0.816635 
				CHANNELS 3 Yrotation Zrotation Xrotation
				JOINT rShldr
				{
					OFFSET -3.198488 0.000000 0.000000 
					CHANNELS 3 Zrotation Yrotation Xrotation
					JOINT rForeArm
					{
						OFFSET -10.139888 0.000000 0.000000 
						CHANNELS 3 Yrotation Zrotation Xrotation
						JOINT rHand
						{
							OFFSET -8.370511 0.000000 0.000000 
							CHANNELS 3 Zrotation Yrotation Xrotation
							End Site
							{
								OFFSET -4.083176 0.000000 0.000000 
							}
						}
					}
				}
			}
		}
	}
	JOINT lThigh
	{
		OFFSET 5.308129 -1.633274 1.361059 
		CHANNELS 3 Xrotation Zrotation Yrotation
		JOINT lShin
		{
			OFFSET -2.041588 -20.007561 0.000000 
			CHANNELS 3 Xrotation Zrotation Yrotation
			JOINT lFoot
			{
				OFFSET 0.000000 -19.190928 -1.224953 
				CHANNELS 3 Xrotation Yrotation Zrotation
				End Site
				{
					OFFSET 0.000000 -2.449906 4.627600 
				}
			}
		}
	}
	JOINT rThigh
	{
		OFFSET -5.308129 -1.633274 1.361059 
		CHANNELS 3 Xrotation Zrotation Yrotation
		JOINT rShin
		{
			OFFSET 2.041588 -20.007561 0.000000 
			CHANNELS 3 Xrotation Zrotation Yrotation
			JOINT rFoot
			{
				OFFSET 0.000000 -19.190928 -1.224953 
				CHANNELS 3 Xrotation Yrotation Zrotation
				End Site
				{
					OFFSET 0.000000 -2.449906 4.627600 
				}
			}
		}
	}
}
MOTION
Frames: 18
Frame Time: 0.033333
-0.003437 32.971333 -0.003437 1.267485 -0.084432 -87.520355 51.562500 -0.002687 -0.016821 15.478253 1.503905 -0.019784 -8.544922 -0.001505 -0.009645 9.521485 0.000057 -0.009769 2.000000 -2.000000 0.000000 -67.621574 -99.566765 -14.606115 -10.102846 -0.884983 8.311721 -9.329613 14.180738 15.123406 -2.000000 2.000000 0.000000 69.441437 96.148186 4.869660 23.384005 0.753450 8.374433 11.906116 -16.626661 -5.372711 -88.146370 30.386747 2.790559 122.438667 4.623554 -3.372720 -34.058548 6.906842 -0.074928 1.616741 -15.290164 -50.195534 92.686768 -2.707124 4.130136 59.601612 -5.781322 -36.031197 
-0.003437 32.973003 -0.003437 1.267485 -0.084432 -87.520355 51.562500 -0.002687 -0.016821 15.478253 1.503905 -0.019784 -8.544922 -0.001505 -0.009645 9.521485 0.000057 -0.009769 2.000000 -2.000000 0.000000 -67.621574 -99.566765 -14.606115 -10.102846 -0.884983 8.311721 -9.329613 14.180738 15.123406 -2.000000 2.000000 0.000000 69.441437 96.148186 4.869660 23.384005 0.753450 8.374433 11.906116 -16.626661 -5.372711 -88.146370 30.386747 2.790559 122.438667 4.623554 -3.372720 -34.058548 6.906843 -0.074927 1.616740 -15.290162 -50.195534 92.686768 -2.707124 4.130136 59.601604 -5.781326 -36.031197 
-0.003437 32.974667 -0.003437 1.267485 -0.084432 -87.520355 51.582047 -0.048999 -0.031044 15.478305 1.645069 -0.019755 -8.544922 -0.001505 -0.009645 9.541019 -0.126876 0.007512 2.000000 -2.000000 0.000000 -67.978767 -99.574455 -14.210703 -10.102846 -0.884983 8.311721 -9.422654 14.213315 15.126139 -2.000000 2.000000 0.000000 69.543427 96.070435 5.389344 23.497112 0.749545 8.375880 11.844456 -16.611002 -5.376725 -88.149933 30.388676 2.744141 122.428902 4.623549 -3.372846 -34.058598 6.909939 -0.084341 1.617347 -15.260735 -50.192726 92.656769 -2.706906 4.148609 59.607239 -5.794804 -36.028553 
-0.003437 33.014671 -0.003437 1.267485 -0.084432 -87.520355 51.807011 -0.542483 -0.107264 15.485205 3.197863 -0.019120 -8.544922 -0.001505 -0.009645 9.717185 -1.464475 0.223449 2.000000 -2.000000 0.000000 -71.595192 -99.700974 -10.258804 -10.102846 -0.884983 8.311721 -10.324068 14.609012 15.322652 -2.000000 2.000000 0.000000 72.210320 95.377579 12.182856 24.858883 0.740549 8.383508 11.215718 -16.580177 -5.465502 -88.307175 30.398991 2.419848 122.418617 4.605400 -3.395167 -34.058640 6.902761 -0.066290 1.605635 -14.956387 -50.201931 92.481400 -2.697240 4.143827 59.754059 -5.819732 -36.016098 
-0.003437 33.059803 -0.003437 1.267485 -0.084432 -87.520355 52.041908 -1.085674 -0.172812 15.476915 4.901599 -0.016954 -8.544922 -0.001505 -0.009645 9.943234 -2.918984 0.445451 2.000000 -2.000000 0.000000 -75.121712 -99.848915 -6.389971 -11.261826 -0.877706 8.316628 -11.304150 15.028673 15.501621 -2.000000 2.000000 0.000000 76.209915 94.663719 20.596342 26.266911 0.728194 8.389915 10.523556 -16.533194 -5.535103 -88.486732 30.396088 2.111888 122.409340 4.623534 -3.373083 -34.057507 6.913768 -0.069492 1.603770 -14.622979 -50.209370 92.306030 -2.677612 4.149009 59.919582 -5.829697 -36.028881 
-0.003437 33.099804 -0.003437 1.267485 -0.084432 -87.520355 52.267162 -1.618861 -0.241606 15.484180 7.403886 -0.015784 -8.544922 -0.001505 -0.009645 10.200294 -4.431672 0.652175 2.000000 -2.000000 0.000000 -78.958397 -100.047440 -2.196776 -12.507860 -0.866150 8.317019 -12.312395 15.472032 15.662082 -2.000000 2.000000 0.000000 83.417946 94.086075 32.341904 27.738752 0.718993 8.402711 9.792727 -16.496408 -5.607795 -88.659149 30.399208 1.746499 122.398697 4.605361 -3.404807 -34.058376 6.904541 -0.064849 1.630039 -14.286996 -50.208569 92.110786 -2.667916 4.153106 60.073166 -5.835752 -36.017303 
-0.003437 33.139938 -0.003437 1.267485 -0.084432 -87.520355 52.501534 -2.153124 -0.288374 15.476157 9.888450 -0.023077 -8.544922 -0.001505 -0.009645 10.498775 -5.924222 0.851001 2.000000 -2.000000 0.000000 -82.486244 -100.253677 1.724493 -13.780055 -0.852442 8.324030 -13.339275 15.919111 15.827298 -2.000000 2.000000 0.000000 94.068100 93.651993 47.579269 29.221346 0.706729 8.409611 9.032215 -16.459192 -5.688706 -88.842506 30.417793 1.364981 122.399162 4.615292 -3.387535 -34.059166 6.902673 -0.078299 1.630171 -13.915664 -50.192791 91.906136 -2.648308 4.157232 60.252201 -5.840028 -36.026703 
-0.003437 33.184940 -0.003437 1.618716 -0.099700 -87.520805 52.715084 -2.636209 -0.314945 15.479674 12.269636 -0.016046 -8.544922 -0.001505 -0.009645 10.819602 -7.357436 1.025568 2.000000 -2.000000 0.000000 -85.872276 -100.444977 5.629447 -15.043247 -0.837386 8.335029 -14.364955 16.373482 15.999322 -2.000000 2.000000 0.000000 107.790031 93.498062 65.813026 30.745356 0.696864 8.421793 8.261751 -16.418011 -5.782633 -89.041283 30.419188 0.951808 122.379173 4.613554 -3.400117 -34.066044 6.923031 -0.061687 1.657913 -13.533894 -50.198120 91.691734 -2.638654 4.151055 60.412060 -5.862662 -36.018574 
-0.003437 33.250076 -0.003437 1.979704 -0.115390 -87.521362 52.937351 -3.074811 -0.323150 15.475628 14.444293 -0.029519 -8.544922 -0.001505 -0.009645 11.152731 -8.633640 1.167881 2.000000 -2.000000 0.000000 -88.901001 -100.663307 9.303737 -16.336330 -0.826259 8.336720 -15.405252 16.844297 16.128342 -2.000000 2.000000 0.000000 -58.309429 86.366051 -95.900040 32.262646 0.686168 8.435481 7.500500 -16.378538 -5.860200 -89.238243 30.439537 0.538516 122.368935 4.618752 -3.410015 -34.067650 6.908839 -0.061027 1.676369 -13.142041 -50.201530 91.477341 -2.619058 4.154673 60.618443 -5.877039 -36.041588 
-0.008446 33.290207 -0.008446 2.350448 -0.131500 -87.522034 53.146511 -3.431379 -0.288289 15.479085 16.345255 -0.021567 -8.544922 -0.001505 -0.009645 11.497677 -9.723508 1.285268 2.000000 -2.000000 0.000000 -91.682755 -100.887871 12.895440 -17.576656 -0.816827 8.342944 -16.422331 17.295538 16.264940 -2.000000 2.000000 0.000000 -46.761368 85.906998 -80.227882 33.755276 0.674767 8.437395 6.750803 -16.349167 -5.941757 -89.416122 30.436300 0.127022 122.359612 4.613532 -3.400356 -34.066059 6.922842 -0.061899 1.665074 -12.740326 -50.201660 91.252808 -2.609208 4.157823 60.793301 -5.885907 -36.033104 
-0.018463 33.345211 -0.018463 2.721194 -0.147605 -87.522820 53.343533 -3.692436 -0.205864 15.477897 17.887980 -0.026471 -8.544922 -0.001505 -0.009645 11.832940 -10.529745 1.368804 2.000000 -2.000000 0.000000 -93.820366 -101.088913 16.052927 -18.794495 -0.806875 8.347693 -17.416533 17.740402 16.401669 -2.000000 2.000000 0.000000 -38.684753 85.222649 -68.365623 35.181313 0.661403 8.459279 6.029303 -16.309521 -6.016507 -89.627922 30.439083 -0.308930 122.349831 4.613521 -3.400475 -34.055557 6.933674 -0.077558 1.692700 -12.339139 -50.204803 91.018913 -2.579870 4.170206 60.997032 -5.901042 -36.028027 
-0.008446 33.385342 -0.008446 3.082183 -0.163281 -87.523666 53.537369 -3.826357 -0.082457 15.475931 18.883280 -0.030264 -8.544922 -0.001505 -0.009645 12.145850 -10.945497 1.441954 2.000000 -2.000000 0.000000 -95.350838 -101.290604 18.917723 -19.959412 -0.791481 8.359234 -18.366709 18.165203 16.534489 -2.000000 2.000000 0.000000 -32.803299 84.432045 -59.194935 36.591187 0.653744 8.458626 5.369787 -16.280649 -6.097176 -89.839546 30.428093 -0.722313 122.340050 4.613521 -3.400580 -34.066189 6.925457 -0.071640 1.688959 -11.943799 -50.205624 90.823685 -2.570408 4.173769 61.179562 -5.921356 -36.035652 
-0.008446 33.430470 -0.008446 3.452929 -0.179375 -87.524651 53.728497 -3.773983 0.121866 15.475497 19.115921 -0.023931 -8.544922 -0.001505 -0.009645 12.412357 -10.786328 1.498101 2.000000 -2.000000 0.000000 -96.178337 -101.503334 21.552324 -21.023499 -0.784967 8.367102 -19.280483 18.585434 16.624325 -2.000000 2.000000 0.000000 -29.063887 83.536369 -52.895653 37.895870 0.645589 8.470177 4.768791 -16.250254 -6.160579 -90.028419 30.439213 -1.151785 122.311066 4.613528 -3.391519 -34.057732 6.915667 -0.079931 1.726386 -11.532008 -50.218021 90.580009 -2.560358 4.166651 61.376572 -5.929346 -36.052380 
-0.018463 33.490475 -0.018463 3.813919 -0.195039 -87.525711 53.929024 -3.548008 0.388899 15.482461 18.604374 -0.025646 -8.544922 -0.001505 -0.009645 12.631602 -10.072330 1.556873 2.000000 -2.000000 0.000000 -96.174507 -101.706123 23.781162 -21.982092 -0.779319 8.365636 -20.131392 18.959290 16.729109 -2.000000 2.000000 0.000000 -25.951662 82.638390 -47.935944 39.099556 0.636416 8.481559 4.249395 -16.232428 -6.219962 -90.238419 30.437151 -1.555733 122.301285 4.613525 -3.391631 -34.058559 6.913560 -0.093490 1.744068 -11.139538 -50.230793 90.355873 -2.540785 4.169406 61.554798 -5.930384 -36.052761 
-0.033489 33.535610 -0.033489 4.155397 -0.209849 -87.526802 54.112503 -3.190184 0.688017 15.479370 17.601196 -0.026898 -8.544922 -0.001505 -0.009645 12.806579 -8.998727 1.605146 2.000000 -2.000000 0.000000 -95.661484 -101.828491 25.695887 -22.831423 -0.770683 8.371099 -20.906437 19.314621 16.796732 -2.000000 2.000000 0.000000 -23.590782 81.743599 -44.285717 40.202854 0.629614 8.492728 3.819554 -16.212912 -6.272436 -90.416481 30.448027 -1.982659 122.291725 4.595597 -3.394701 -34.060249 6.902294 -0.102296 1.744174 -10.758509 -50.213978 90.141869 -2.521397 4.162593 61.742950 -5.934976 -36.060696 
-0.018463 33.590740 -0.018463 4.496876 -0.224654 -87.527985 54.268337 -2.747427 1.040489 15.480029 16.356674 -0.024221 -8.544922 -0.001505 -0.009645 12.941130 -7.789638 1.646666 2.000000 -2.000000 0.000000 -94.950050 -101.932007 27.367311 -23.558540 -0.762226 8.379598 -21.607803 19.625698 16.854279 -2.000000 2.000000 0.000000 -21.665735 80.906029 -41.448696 41.167557 0.620752 8.503260 3.488877 -16.194933 -6.306537 -90.605324 30.439606 -2.385628 122.281479 4.600819 -3.404629 -34.060730 6.902472 -0.114022 1.770344 -10.385199 -50.238792 89.936882 -2.511548 4.165885 61.915043 -5.954071 -36.059284 
-0.018463 33.650742 -0.018463 4.818841 -0.238605 -87.529182 54.379787 -2.260351 1.400098 15.475614 15.121388 -0.017506 -8.544922 -0.001505 -0.009645 13.057561 -6.620076 1.654273 2.000000 -2.000000 0.000000 -94.068382 -101.947662 28.625050 -24.115698 -0.760856 8.384025 -22.207237 19.894138 16.912092 -2.000000 2.000000 0.000000 -20.030890 80.152870 -39.106926 41.989826 0.612971 8.505116 3.299932 -16.194002 -6.327745 -90.788597 30.438650 -2.732916 122.271942 4.613501 -3.391978 -34.061104 6.903292 -0.125346 1.771312 -10.044522 -50.206192 89.732269 -2.501724 4.159557 62.095894 -5.962591 -36.045521 
-0.018463 33.670876 -0.018463 5.121295 -0.251705 -87.530380 54.464329 -1.763322 1.785911 15.480989 14.014257 -0.017078 -8.544922 -0.001505 -0.009645 13.137533 -5.636125 1.626420 2.000000 -2.000000 0.000000 -93.406219 -101.905945 29.710217 -24.489687 -0.751845 8.388041 -22.664827 20.110254 16.970503 -2.000000 2.000000 0.000000 -18.643286 79.523376 -37.110283 42.612110 0.615442 8.518889 3.258606 -16.182878 -6.331293 -90.943359 30.428438 -3.116521 122.252243 4.595549 -3.404545 -34.060951 6.907823 -0.133444 1.806555 -9.727242 -50.216557 89.546852 -2.481595 4.172884 62.274174 -5.967057 -36.054432 
